<?xml version="1.0" encoding="UTF-8" standalone="no"?>
<!DOCTYPE svg PUBLIC "-//W3C//DTD SVG 1.1//EN" "http://www.w3.org/Graphics/SVG/1.1/DTD/svg11.dtd">
<svg width="100%" height="100%" viewBox="0 0 31 29" version="1.1" xmlns="http://www.w3.org/2000/svg" xmlns:xlink="http://www.w3.org/1999/xlink" xml:space="preserve" xmlns:serif="http://www.serif.com/" style="fill-rule:evenodd;clip-rule:evenodd;stroke-linejoin:round;stroke-miterlimit:1.41421;">
    <g id="Монтажная-область1" serif:id="Монтажная область1" transform="matrix(0.101186,0,0,0.577478,-4.91064,-4.15062)">
        <rect x="48.531" y="7.188" width="301.923" height="49.081" style="fill:none;"/>
        <g id="Shape-3" serif:id="Shape 3" transform="matrix(9.88276,0,0,1.73167,-186.106,-1254.88)">
            <path d="M53.857,755.572C53.857,756.334 53.476,756.714 52.714,756.714L50.429,756.714C49.666,756.714 49.286,756.334 49.286,755.572L49.286,753.629L48.714,754.371L29.286,754.371L28.714,753.629L28.714,755.572C28.714,756.334 28.333,756.714 27.571,756.714L25.286,756.714C24.523,756.714 24.143,756.334 24.143,755.572L24.143,749.686C24.143,746.524 24.314,744.41 24.657,743.343C25.114,742.01 25.571,741.248 26.029,741.057C26.752,739.153 27.4,737.552 27.971,736.257C28.886,734.2 29.705,733.077 30.429,732.886C30.847,732.771 33.248,732.714 37.628,732.714L40.372,732.714C44.752,732.714 47.152,732.771 47.571,732.886C48.294,733.077 49.114,734.2 50.029,736.257C50.6,737.552 51.248,739.153 51.971,741.057C52.429,741.248 52.886,742.01 53.343,743.343C53.685,744.41 53.857,746.524 53.857,749.686L53.857,755.572ZM51.057,744.428C50.372,744.428 49.609,744.714 48.771,745.286C48.237,745.629 47.762,746.105 47.343,746.714C45.819,748.467 45.209,749.324 45.514,749.286L32.486,749.286C32.79,749.324 32.18,748.467 30.657,746.714C30.237,746.105 29.762,745.629 29.228,745.286C28.39,744.714 27.628,744.428 26.943,744.428C25.8,744.428 25.228,745.191 25.228,746.714C25.228,747.286 25.362,747.705 25.628,747.971C25.819,748.124 26.086,748.2 26.429,748.2L30.943,748.2C30.904,748.162 30.923,748.2 31,748.314C31.647,749.343 31.99,749.857 32.029,749.857L45.971,749.857C46.009,749.857 46.352,749.343 47,748.314C47.076,748.2 47.095,748.162 47.057,748.2L51.571,748.2C51.914,748.2 52.18,748.124 52.372,747.971C52.638,747.705 52.771,747.286 52.771,746.714C52.771,745.191 52.2,744.428 51.057,744.428ZM28.2,740.771C29.152,740.734 32.752,740.714 39,740.714C45.248,740.714 48.847,740.734 49.8,740.771C50.18,740.771 50.372,740.581 50.372,740.2C50.372,740.162 50.372,740.105 50.372,740.029C50.104,739.381 49.647,738.296 49,736.771C48.429,735.438 47.894,734.696 47.4,734.543L30.6,734.543C30.104,734.696 29.571,735.438 29,736.771C28.352,738.334 27.894,739.42 27.628,740.029C27.628,740.105 27.628,740.162 27.628,740.2C27.628,740.581 27.819,740.771 28.2,740.771ZM36.886,731.572L31,731.572C30.237,731.572 29.857,731.191 29.857,730.428C29.857,729.667 30.237,729.286 31,729.286L36.886,729.286C37.647,729.286 38.029,729.667 38.029,730.428C38.029,731.191 37.647,731.572 36.886,731.572ZM40.943,729.286C40.18,729.286 39.8,729.667 39.8,730.428C39.8,731.191 40.18,731.572 40.943,731.572L46.829,731.572C47.59,731.572 47.971,731.191 47.971,730.428C47.971,729.667 47.59,729.286 46.829,729.286L40.943,729.286Z" style="fill:rgb(7,119,185);fill-rule:nonzero;"/>
        </g>
    </g>
</svg>
