<?xml version="1.0" encoding="UTF-8" standalone="no"?>
<!DOCTYPE svg PUBLIC "-//W3C//DTD SVG 1.1//EN" "http://www.w3.org/Graphics/SVG/1.1/DTD/svg11.dtd">
<svg width="100%" height="100%" viewBox="0 0 34 38" version="1.1" xmlns="http://www.w3.org/2000/svg" xmlns:xlink="http://www.w3.org/1999/xlink" xml:space="preserve" xmlns:serif="http://www.serif.com/" style="fill-rule:evenodd;clip-rule:evenodd;stroke-linejoin:round;stroke-miterlimit:1.41421;">
    <g id="Монтажная-область1" serif:id="Монтажная область1" transform="matrix(0.110452,0,0,0.763842,-5.36029,-5.49012)">
        <rect x="48.531" y="7.188" width="301.923" height="49.081" style="fill:none;"/>
        <g id="Shape-6" serif:id="Shape 6" transform="matrix(9.05374,0,0,1.30917,-154.238,-1178.08)">
            <path d="M55.207,918.543C55.397,918.695 55.454,918.905 55.378,919.172L46.121,942.086C46.044,942.314 45.873,942.428 45.607,942.428C45.53,942.428 45.454,942.409 45.378,942.371L33.207,937.914C33.054,937.876 32.94,937.78 32.864,937.629C32.787,937.439 32.787,937.267 32.864,937.114L33.949,934.943L22.921,929.686C22.768,929.61 22.673,929.496 22.635,929.343C22.558,929.191 22.578,929.038 22.693,928.886L26.121,922.829L35.721,905.857C35.835,905.667 36.026,905.572 36.293,905.572L48.464,906.829L48.521,906.829C48.558,906.867 48.597,906.886 48.635,906.886L48.693,906.886L48.693,906.943L48.75,906.943L48.75,907L48.807,907L48.864,907.057C48.864,907.095 48.882,907.114 48.921,907.114C48.882,907.114 48.882,907.114 48.921,907.114L48.921,907.229L48.978,907.286L48.978,907.514C48.978,907.553 48.959,907.571 48.921,907.571L48.921,907.629L47.378,910.886L55.207,918.543ZM28.578,924.428L24.064,928.943L24.921,929.343L29.492,924.772L28.578,924.428ZM25.378,926.428L27.664,924.086L26.864,923.8L25.378,926.428ZM25.721,929.743L26.578,930.143L31.321,925.4L30.407,925.057L25.721,929.743ZM27.378,930.543L28.235,930.943L33.092,926.029L32.178,925.743L27.378,930.543ZM29.035,931.343L29.892,931.743L34.921,926.715L34.006,926.371L29.035,931.343ZM30.693,932.143L31.549,932.543L36.75,927.343L35.835,927L30.693,932.143ZM33.949,911.343L32.293,914.257L39.435,907.057L38.35,906.943L33.949,911.343ZM32.35,932.886L33.207,933.286L38.521,927.971L37.607,927.629L32.35,932.886ZM41.664,907.286L40.578,907.172L32.864,914.886L33.835,915.172L41.664,907.286ZM34.006,933.686L34.864,934.086L40.35,928.6L39.435,928.314L34.006,933.686ZM42.178,929.286L41.264,928.943L35.264,934.943L34.178,937.057L34.293,937.114L42.178,929.286ZM43.892,907.514L42.807,907.4L34.75,915.457L35.721,915.686L43.892,907.514ZM43.949,929.914L43.035,929.571L35.207,937.457L36.121,937.8L43.949,929.914ZM37.264,906.829L36.521,906.772L35.492,908.543L37.264,906.829ZM46.121,907.743L45.035,907.629L36.693,915.971L37.664,916.257L46.121,907.743ZM45.778,930.543L44.864,930.2L36.978,938.086L37.892,938.428L45.778,930.543ZM47.264,907.857L38.578,916.485L39.549,916.772L46.693,909.629L47.549,907.914L47.264,907.857ZM47.549,931.172L46.635,930.886L38.807,938.772L39.664,939.057L47.549,931.172ZM45.607,911.971L40.521,917.057L41.492,917.286L44.464,914.314L45.607,911.971ZM49.035,931.743L48.464,931.514L40.578,939.4L41.492,939.743L48.75,932.428L49.035,931.743ZM54.178,919.057L46.864,911.971L43.949,918.028L45.607,918.485C45.758,918.524 45.873,918.62 45.949,918.772C46.026,918.924 46.026,919.095 45.949,919.286L41.778,927.914L49.492,930.657L54.178,919.057ZM43.264,940.371L47.092,936.543L47.949,934.485L42.35,940.086L43.264,940.371ZM43.378,916.657L42.407,917.572L42.864,917.686L43.378,916.657ZM46.293,938.6L44.178,940.714L45.264,941.114L46.293,938.6Z" style="fill:rgb(7,119,185);fill-rule:nonzero;"/>
        </g>
    </g>
</svg>
