<?xml version="1.0" encoding="UTF-8" standalone="no"?>
<!DOCTYPE svg PUBLIC "-//W3C//DTD SVG 1.1//EN" "http://www.w3.org/Graphics/SVG/1.1/DTD/svg11.dtd">
<svg width="100%" height="100%" viewBox="0 0 22 25" version="1.1" xmlns="http://www.w3.org/2000/svg" xmlns:xlink="http://www.w3.org/1999/xlink" xml:space="preserve" xmlns:serif="http://www.serif.com/" style="fill-rule:evenodd;clip-rule:evenodd;stroke-linejoin:round;stroke-miterlimit:1.41421;">
    <g id="Монтажная-область1" serif:id="Монтажная область1" transform="matrix(0.0713282,0,0,0.499705,-3.4616,-3.59163)">
        <rect x="48.531" y="7.188" width="301.923" height="49.081" style="fill:none;"/>
        <clipPath id="_clip1">
            <rect x="48.531" y="7.188" width="301.923" height="49.081"/>
        </clipPath>
        <g clip-path="url(#_clip1)">
            <g id="share-btn_floated" transform="matrix(14.0197,0,0,2.00118,-16466.7,-948.688)">
                <path id="Shape-2" serif:id="Shape 2" d="M1170.01,510.088L1209.99,510.088L1209.99,469.912L1170.01,469.912L1170.01,510.088" style="fill:none;"/>
                <path id="Shape-2-copy" serif:id="Shape 2 copy" d="M1195.62,499.488C1194.61,499.488 1193.79,498.665 1193.79,497.652C1193.79,496.637 1194.61,495.813 1195.62,495.813C1196.64,495.813 1197.46,496.637 1197.46,497.652C1197.46,498.665 1196.64,499.488 1195.62,499.488M1182.38,491.842C1181.36,491.842 1180.54,491.018 1180.54,490.004C1180.54,488.99 1181.36,488.164 1182.38,488.164C1183.39,488.164 1184.21,488.99 1184.21,490.004C1184.21,491.018 1183.39,491.842 1182.38,491.842M1195.62,484.194C1194.61,484.194 1193.79,483.369 1193.79,482.354C1193.79,481.342 1194.61,480.518 1195.62,480.518C1196.64,480.518 1197.46,481.342 1197.46,482.354C1197.46,483.369 1196.64,484.194 1195.62,484.194M1195.62,478.98C1193.76,478.98 1192.25,480.494 1192.25,482.354C1192.25,482.694 1192.31,483.015 1192.41,483.324L1184.83,487.697C1184.21,487.043 1183.35,486.627 1182.38,486.627C1180.51,486.627 1179,488.141 1179,490.004C1179,491.866 1180.51,493.381 1182.38,493.381C1183.35,493.381 1184.21,492.965 1184.83,492.309L1192.41,496.683C1192.31,496.992 1192.25,497.313 1192.25,497.652C1192.25,499.512 1193.76,501.027 1195.62,501.027C1197.48,501.027 1199,499.512 1199,497.652C1199,495.79 1197.48,494.275 1195.62,494.275C1194.65,494.275 1193.79,494.691 1193.17,495.347L1185.6,490.974C1185.69,490.664 1185.75,490.343 1185.75,490.004C1185.75,489.665 1185.69,489.342 1185.6,489.034L1193.17,484.659C1193.79,485.315 1194.65,485.732 1195.62,485.732C1197.48,485.732 1199,484.217 1199,482.354C1199,480.494 1197.48,478.98 1195.62,478.98" style="fill:rgb(201,201,201);fill-rule:nonzero;"/>
            </g>
        </g>
    </g>
</svg>
