<?xml version="1.0" encoding="UTF-8" standalone="no"?>
<!DOCTYPE svg PUBLIC "-//W3C//DTD SVG 1.1//EN" "http://www.w3.org/Graphics/SVG/1.1/DTD/svg11.dtd">
<svg width="100%" height="100%" viewBox="0 0 23 23" version="1.1" xmlns="http://www.w3.org/2000/svg" xmlns:xlink="http://www.w3.org/1999/xlink" xml:space="preserve" xmlns:serif="http://www.serif.com/" style="fill-rule:evenodd;clip-rule:evenodd;stroke-linejoin:round;stroke-miterlimit:1.41421;">
    <g id="Монтажная-область1" serif:id="Монтажная область1" transform="matrix(0.0758451,0,0,0.467818,-3.68081,-3.36244)">
        <rect x="48.531" y="7.188" width="301.923" height="49.081" style="fill:none;"/>
        <g id="search-icon" transform="matrix(13.1848,0,0,2.13758,-4084.08,-298.131)">
            <path d="M330.25,157.502C330.094,157.346 329.93,157.268 329.758,157.268C329.586,157.268 329.445,157.346 329.336,157.502L328.047,156.19C329.172,154.752 329.734,153.119 329.734,151.291C329.734,149.854 329.379,148.518 328.668,147.283C327.957,146.049 326.984,145.077 325.75,144.365C324.515,143.655 323.18,143.299 321.742,143.299C320.304,143.299 318.968,143.655 317.734,144.365C316.5,145.077 315.527,146.049 314.816,147.283C314.105,148.518 313.75,149.854 313.75,151.291C313.75,152.729 314.105,154.065 314.816,155.299C315.527,156.534 316.5,157.506 317.734,158.217C318.968,158.928 320.304,159.283 321.742,159.283C323.57,159.283 325.203,158.721 326.641,157.596L327.953,158.885C327.844,159.041 327.789,159.205 327.789,159.377C327.789,159.549 327.844,159.69 327.953,159.799L333.25,165.096C333.391,165.236 333.551,165.307 333.73,165.307C333.91,165.307 334.047,165.236 334.141,165.096L335.547,163.69C335.687,163.596 335.758,163.447 335.758,163.244C335.758,163.041 335.687,162.893 335.547,162.799L330.25,157.502ZM321.742,145.291C323.398,145.291 324.812,145.877 325.984,147.049C327.156,148.221 327.742,149.635 327.742,151.291C327.742,152.948 327.156,154.361 325.984,155.533C324.812,156.705 323.398,157.291 321.742,157.291C320.086,157.291 318.672,156.705 317.5,155.533C316.328,154.361 315.742,152.948 315.742,151.291C315.742,149.635 316.328,148.221 317.5,147.049C318.672,145.877 320.086,145.291 321.742,145.291Z" style="fill:rgb(7,119,185);fill-rule:nonzero;"/>
        </g>
    </g>
</svg>
