<?xml version="1.0" encoding="UTF-8" standalone="no"?>
<!DOCTYPE svg PUBLIC "-//W3C//DTD SVG 1.1//EN" "http://www.w3.org/Graphics/SVG/1.1/DTD/svg11.dtd">
<svg width="100%" height="100%" viewBox="0 0 36 40" version="1.1" xmlns="http://www.w3.org/2000/svg" xmlns:xlink="http://www.w3.org/1999/xlink" xml:space="preserve" xmlns:serif="http://www.serif.com/" style="fill-rule:evenodd;clip-rule:evenodd;stroke-linejoin:round;stroke-miterlimit:1.41421;">
    <g id="Монтажная-область1" serif:id="Монтажная область1" transform="matrix(0.116321,0,0,0.803719,-5.64515,-5.77673)">
        <rect x="48.531" y="7.188" width="301.923" height="49.081" style="fill:none;"/>
        <g id="Shape-1" serif:id="Shape 1" transform="matrix(8.59688,0,0,1.24422,-160.758,-408.569)">
            <path d="M47.486,368.252C51.388,368.186 55.084,368.681 56.319,369.214C55.099,369.492 51.501,368.981 47.486,368.252M39.917,348.655L44.966,353.704L40.927,357.742L35.879,352.694L39.917,348.655ZM48.688,339.884L53.737,344.932L49.698,348.971L44.65,343.923L48.688,339.884ZM42.341,367.256C40.405,366.863 38.564,366.474 37.039,366.151C35.233,365.769 33.715,365.45 32.461,365.198L35.67,361.989C35.745,361.994 35.819,362.011 35.894,362.011C36.99,362.011 38.087,361.593 38.923,360.756L40.263,359.416L41.432,358.247L45.47,354.208L50.203,349.476L54.242,345.437L55.278,344.4L57.245,342.434C58.918,340.761 58.918,338.049 57.245,336.376C55.573,334.702 52.859,334.702 51.187,336.376L49.22,338.342L48.184,339.379L44.145,343.418L39.412,348.15L35.374,352.189L34.205,353.358L32.865,354.698C31.971,355.592 31.57,356.781 31.631,357.951L26.337,363.245C25.221,364.36 25.221,366.169 26.337,367.284C26.894,367.842 27.625,368.121 28.356,368.121C29.087,368.121 29.818,367.842 30.376,367.284L31.245,366.414C32.774,366.71 34.726,367.121 36.743,367.548C37.536,367.716 38.304,367.877 39.047,368.033C31.887,370.031 28.539,369.524 27.68,368.879C27.447,368.705 27.447,368.569 27.447,368.511C27.447,368.116 27.127,367.797 26.733,367.797C26.338,367.797 26.019,368.116 26.019,368.511C26.019,368.926 26.158,369.524 26.824,370.023C27.591,370.596 28.893,370.879 30.619,370.879C33.084,370.879 36.412,370.302 40.27,369.167C40.906,368.98 41.588,368.826 42.299,368.701C51.452,370.552 56.188,371.184 57.473,370.247C58.126,369.771 58.147,369.174 57.95,368.773C57.067,366.985 48.368,366.29 42.341,367.256" style="fill:rgb(7,119,185);fill-rule:nonzero;"/>
        </g>
    </g>
</svg>
