<?xml version="1.0" encoding="UTF-8" standalone="no"?>
<!DOCTYPE svg PUBLIC "-//W3C//DTD SVG 1.1//EN" "http://www.w3.org/Graphics/SVG/1.1/DTD/svg11.dtd">
<svg width="100%" height="100%" viewBox="0 0 40 35" version="1.1" xmlns="http://www.w3.org/2000/svg" xmlns:xlink="http://www.w3.org/1999/xlink" xml:space="preserve" xmlns:serif="http://www.serif.com/" style="fill-rule:evenodd;clip-rule:evenodd;stroke-linejoin:round;stroke-miterlimit:1.41421;">
    <g id="Монтажная-область1" serif:id="Монтажная область1" transform="matrix(0.131265,0,0,0.712384,-6.37036,-5.12026)">
        <rect x="48.531" y="7.188" width="301.923" height="49.081" style="fill:none;"/>
        <g id="Shape-4" serif:id="Shape 4" transform="matrix(7.6182,0,0,1.40374,-101.113,-1093.59)">
            <path d="M39.648,816.149C40.448,816.149 40.848,816.549 40.848,817.349C40.848,818.149 40.448,818.549 39.648,818.549L21.248,818.549C20.448,818.549 20.048,818.149 20.048,817.349C20.048,816.549 20.448,816.149 21.248,816.149L22.448,816.149C22.448,815.463 22.695,814.873 23.191,814.377C23.686,813.92 24.257,813.692 24.905,813.692L35.934,813.692C36.62,813.692 37.209,813.92 37.705,814.377C38.162,814.873 38.391,815.463 38.391,816.149L39.648,816.149ZM35.248,784.835C35.743,784.226 36.314,784.187 36.962,784.72L47.248,793.349C47.857,793.844 47.895,794.416 47.362,795.063L46.505,796.034C46.01,796.683 45.438,796.74 44.791,796.206L42.962,794.663C42.62,794.397 42.333,794.416 42.105,794.72C41.838,795.026 41.857,795.311 42.162,795.577C42.771,796.112 42.81,796.683 42.276,797.292L39.934,800.091L45.305,804.606C45.762,804.073 46.314,803.787 46.962,803.749C47.648,803.673 48.257,803.863 48.791,804.32L58.448,812.663C59.057,813.197 59.114,813.768 58.62,814.377L55.477,818.149C54.943,818.758 54.371,818.815 53.762,818.32L44.048,809.92C43.552,809.463 43.267,808.911 43.191,808.263C43.152,807.577 43.343,806.987 43.762,806.492L38.391,801.977L36.048,804.778C35.514,805.387 34.943,805.426 34.333,804.892C33.991,804.663 33.705,804.701 33.477,805.006C33.209,805.311 33.229,805.597 33.534,805.863L35.419,807.406C36.028,807.94 36.067,808.511 35.534,809.12L34.677,810.149C34.181,810.758 33.609,810.816 32.962,810.32L22.734,801.692C22.085,801.158 22.028,800.569 22.562,799.92L23.419,798.949C23.914,798.34 24.485,798.283 25.134,798.778L26.962,800.377C27.305,800.644 27.591,800.606 27.819,800.263C28.085,799.959 28.067,799.673 27.762,799.406C27.152,798.911 27.114,798.34 27.648,797.692L33.876,790.206C34.41,789.597 34.981,789.559 35.591,790.091C35.934,790.359 36.219,790.32 36.448,789.977C36.714,789.673 36.695,789.387 36.391,789.12L34.505,787.577C33.895,787.044 33.857,786.473 34.391,785.863L35.248,784.835Z" style="fill:rgb(7,119,185);fill-rule:nonzero;"/>
        </g>
    </g>
</svg>
