<?xml version="1.0" encoding="UTF-8" standalone="no"?>
<!DOCTYPE svg PUBLIC "-//W3C//DTD SVG 1.1//EN" "http://www.w3.org/Graphics/SVG/1.1/DTD/svg11.dtd">
<svg width="100%" height="100%" viewBox="0 0 36 38" version="1.1" xmlns="http://www.w3.org/2000/svg" xmlns:xlink="http://www.w3.org/1999/xlink" xml:space="preserve" xmlns:serif="http://www.serif.com/" style="fill-rule:evenodd;clip-rule:evenodd;stroke-linejoin:round;stroke-miterlimit:1.41421;">
    <g id="Монтажная-область1" serif:id="Монтажная область1" transform="matrix(0.116018,0,0,0.757935,-5.63041,-5.44766)">
        <rect x="48.531" y="7.188" width="301.923" height="49.081" style="fill:none;"/>
        <g id="Shape-5" serif:id="Shape 5" transform="matrix(8.61937,0,0,1.31937,-149.503,-1110.93)">
            <path d="M54.506,869.029L53.42,868.514C53.954,866.991 54.22,865.429 54.22,863.829C54.22,859.753 52.753,856.267 49.82,853.371C46.925,850.438 43.439,848.972 39.363,848.972C35.249,848.972 31.744,850.438 28.849,853.371C25.954,856.267 24.506,859.753 24.506,863.829C24.506,867.639 25.763,870.953 28.277,873.771C30.792,876.591 33.915,878.209 37.649,878.629L37.649,879.771C33.915,879.39 30.715,877.848 28.049,875.143C24.925,872.019 23.363,868.248 23.363,863.829C23.363,859.448 24.925,855.696 28.049,852.572C31.172,849.41 34.944,847.829 39.363,847.829C43.744,847.829 47.496,849.41 50.621,852.572C53.782,855.696 55.363,859.448 55.363,863.829C55.363,865.62 55.078,867.353 54.506,869.029ZM33.649,850.114C33.649,850.114 32.315,851.467 29.649,854.171C26.982,856.838 25.649,860.057 25.649,863.829C25.649,867.334 26.792,870.381 29.078,872.972C31.363,875.562 34.22,877.067 37.649,877.486L37.649,870.457L35.535,870.457C35.268,870.457 35.135,870.306 35.135,870L35.135,869.2C35.135,869.01 35.21,868.877 35.363,868.8C35.706,868.686 36.049,868.553 36.392,868.4C36.621,868.324 36.868,868.267 37.135,868.228L37.135,859.6L37.135,859.086L37.078,859.086C36.658,859.124 36.239,859.143 35.82,859.143C35.668,859.143 35.478,859.143 35.249,859.143C35.02,859.143 34.887,859.029 34.849,858.8L34.735,858.057C34.735,857.829 34.849,857.677 35.078,857.6C35.725,857.448 36.449,857.22 37.249,856.914C38.049,856.61 38.772,856.248 39.42,855.829C39.496,855.791 39.572,855.771 39.649,855.771L40.906,855.771C41.172,855.771 41.306,855.905 41.306,856.171L41.306,862.629L52.392,868C52.849,866.667 53.078,865.277 53.078,863.829C53.078,860.057 51.725,856.838 49.02,854.171C46.353,851.467 43.135,850.114 39.363,850.114C35.553,850.114 33.649,850.114 33.649,850.114ZM40.449,883.6L40.449,865.314L56.792,873.257C57.135,873.448 57.382,873.371 57.535,873.029C57.725,872.686 57.649,872.42 57.306,872.228L40.106,863.943C39.954,863.829 39.782,863.829 39.592,863.943C39.401,864.057 39.306,864.21 39.306,864.4L39.306,883.6C39.306,883.98 39.496,884.171 39.877,884.171C40.258,884.171 40.449,883.98 40.449,883.6ZM41.592,880.857C44.296,880.78 46.792,880.019 49.078,878.572C51.21,877.2 52.868,875.41 54.049,873.2L53.02,872.686C50.582,877.257 46.772,879.6 41.592,879.714L41.592,880.857Z" style="fill:rgb(7,119,185);fill-rule:nonzero;"/>
        </g>
    </g>
</svg>
